<?xml version="1.0" encoding="UTF-8"?>
<svg id="Layer_1" data-name="Layer 1" xmlns="http://www.w3.org/2000/svg" viewBox="0 0 160 160">
  <defs>
    <style>
      .cls-1 {
        fill: #ff773b;
      }

      .cls-1, .cls-2, .cls-3, .cls-4, .cls-5, .cls-6, .cls-7, .cls-8, .cls-9, .cls-10, .cls-11, .cls-12, .cls-13, .cls-14, .cls-15, .cls-16, .cls-17, .cls-18, .cls-19, .cls-20, .cls-21, .cls-22, .cls-23, .cls-24, .cls-25, .cls-26, .cls-27, .cls-28, .cls-29, .cls-30, .cls-31, .cls-32 {
        stroke-width: 0px;
      }

      .cls-2 {
        fill: #f7921f;
      }

      .cls-3 {
        fill: #fb852d;
      }

      .cls-4 {
        fill: #fa8a28;
      }

      .cls-5 {
        fill: #f88f22;
      }

      .cls-6 {
        fill: #fc7f32;
      }

      .cls-7 {
        fill: #fc822f;
      }

      .cls-8 {
        fill: #fd7d35;
      }

      .cls-9 {
        fill: #f88e23;
      }

      .cls-10 {
        fill: #fd7c36;
      }

      .cls-11 {
        fill: #f98b27;
      }

      .cls-12 {
        fill: #f89120;
      }

      .cls-13 {
        fill: #fb832e;
      }

      .cls-14 {
        fill: #f7931e;
      }

      .cls-15 {
        fill: #fd7d34;
      }

      .cls-16 {
        fill: #f98d24;
      }

      .cls-17 {
        fill: #fe7b37;
      }

      .cls-18 {
        fill: #fd7e33;
      }

      .cls-19 {
        fill: #fa872b;
      }

      .cls-20 {
        fill: #fe7939;
      }

      .cls-21 {
        fill: #fa882a;
      }

      .cls-22 {
        fill: #fc8031;
      }

      .cls-23 {
        fill: #fc8130;
      }

      .cls-24 {
        fill: #fb842d;
      }

      .cls-33 {
        font-family: ProgramOT-Bold, 'Program OT';
        font-size: 44.06px;
        font-weight: 700;
      }

      .cls-33, .cls-34 {
        fill: #000;
      }

      .cls-25 {
        fill: #ff763c;
      }

      .cls-34 {
        font-family: Roboto-Regular, Roboto;
        font-size: 136.61px;
      }

      .cls-26 {
        fill: #fe7a38;
      }

      .cls-27 {
        fill: #f98c25;
      }

      .cls-28 {
        fill: #fe783a;
      }

      .cls-29 {
        fill: #f89021;
      }

      .cls-30 {
        fill: #fb862c;
      }

      .cls-31 {
        fill: #f98c26;
      }

      .cls-32 {
        fill: #fa8929;
      }
    </style>
  </defs>
  <g>
    <rect class="cls-25" x="3.51" y="4" width="152.99" height="152" rx="40.14" ry="40.14"/>
    <rect class="cls-1" x="4.43" y="4.91" width="151.15" height="150.17" rx="40.14" ry="40.14"/>
    <rect class="cls-28" x="5.34" y="5.83" width="149.31" height="148.35" rx="40.14" ry="40.14"/>
    <rect class="cls-20" x="6.26" y="6.74" width="147.47" height="146.52" rx="40.14" ry="40.14"/>
    <rect class="cls-26" x="7.18" y="7.65" width="145.63" height="144.69" rx="40.14" ry="40.14"/>
    <rect class="cls-17" x="8.1" y="8.57" width="143.8" height="142.87" rx="40.14" ry="40.14"/>
    <rect class="cls-10" x="9.02" y="9.48" width="141.96" height="141.04" rx="40.14" ry="40.14"/>
    <rect class="cls-8" x="9.94" y="10.39" width="140.12" height="139.21" rx="40.14" ry="40.14"/>
    <rect class="cls-15" x="10.86" y="11.31" width="138.28" height="137.39" rx="40.14" ry="40.14"/>
    <rect class="cls-18" x="11.78" y="12.22" width="136.44" height="135.56" rx="40.14" ry="40.14"/>
    <rect class="cls-6" x="12.7" y="13.13" width="134.6" height="133.74" rx="40.14" ry="40.14"/>
    <rect class="cls-22" x="13.62" y="14.05" width="132.77" height="131.91" rx="40.14" ry="40.14"/>
    <rect class="cls-23" x="14.54" y="14.96" width="130.93" height="130.08" rx="40.14" ry="40.14"/>
    <rect class="cls-7" x="15.46" y="15.87" width="129.09" height="128.26" rx="40.14" ry="40.14"/>
    <rect class="cls-13" x="16.37" y="16.79" width="127.25" height="126.43" rx="40.14" ry="40.14"/>
    <rect class="cls-24" x="17.29" y="17.7" width="125.41" height="124.6" rx="40.14" ry="40.14"/>
    <rect class="cls-3" x="18.21" y="18.61" width="123.57" height="122.78" rx="40.14" ry="40.14"/>
    <rect class="cls-30" x="19.13" y="19.52" width="121.74" height="120.95" rx="40.14" ry="40.14"/>
    <rect class="cls-19" x="20.05" y="20.44" width="119.9" height="119.12" rx="40.14" ry="40.14"/>
    <rect class="cls-21" x="20.97" y="21.35" width="118.06" height="117.3" rx="40.14" ry="40.14"/>
    <rect class="cls-32" x="21.89" y="22.26" width="116.22" height="115.47" rx="40.14" ry="40.14"/>
    <rect class="cls-4" x="22.81" y="23.18" width="114.38" height="113.64" rx="40.14" ry="40.14"/>
    <rect class="cls-11" x="23.73" y="24.09" width="112.54" height="111.82" rx="40.14" ry="40.14"/>
    <rect class="cls-31" x="24.65" y="25" width="110.71" height="109.99" rx="40.14" ry="40.14"/>
    <rect class="cls-27" x="25.57" y="25.92" width="108.87" height="108.17" rx="40.14" ry="40.14"/>
    <rect class="cls-16" x="26.49" y="26.83" width="107.03" height="106.34" rx="40.14" ry="40.14"/>
    <rect class="cls-9" x="27.4" y="27.74" width="105.19" height="104.51" rx="40.14" ry="40.14"/>
    <rect class="cls-5" x="28.32" y="28.66" width="103.35" height="102.69" rx="40.14" ry="40.14"/>
    <rect class="cls-29" x="29.24" y="29.57" width="101.51" height="100.86" rx="40.14" ry="40.14"/>
    <rect class="cls-12" x="30.16" y="30.48" width="99.68" height="99.03" rx="40.14" ry="40.14"/>
    <rect class="cls-2" x="31.08" y="31.4" width="97.84" height="97.21" rx="40.14" ry="40.14"/>
    <rect class="cls-14" x="32" y="32.31" width="96" height="95.38" rx="40.14" ry="40.14"/>
  </g>
  <text class="cls-34" transform="translate(37.94 127.92)"><tspan x="0" y="0">R</tspan></text>
  <g>
    <text class="cls-33" transform="translate(16.72 127.14)"><tspan x="0" y="0">H</tspan></text>
    <text class="cls-33" transform="translate(122.16 127.14)"><tspan x="0" y="0">D</tspan></text>
  </g>
</svg>